<svg width="291" height="254" viewBox="0 0 291 254" fill="none" xmlns="http://www.w3.org/2000/svg">
<path d="M277.748 121.604C282.543 123.705 282.539 130.507 277.743 132.6L15.8069 246.88C10.5947 249.154 5.43673 243.576 8.11141 238.558L66.0096 129.926C66.9474 128.166 66.9497 126.056 66.0157 124.294L8.19525 15.2131C5.53298 10.1906 10.6958 4.62759 15.9026 6.90831L277.748 121.604Z" fill="#0090D9"/>
<path d="M139.763 125.178L66.2098 146.388L65.6118 107.335L139.763 125.178Z" fill="white"/>
<path d="M65.7991 107.441L65.7991 124.236L55.3357 104.656L65.7991 107.441Z" fill="white"/>
<path d="M65.8494 130.313L68.0629 145.843L55.3357 149.894L65.8494 130.313Z" fill="white"/>
</svg>
