<svg width="252" height="216" viewBox="0 0 252 216" fill="none" xmlns="http://www.w3.org/2000/svg">
<g clip-path="url(#clip0_5_2)">
<path d="M152.759 47.9718L154.136 55.8162L139.327 58.2036L142.771 47.2897L152.759 47.9718Z" fill="#A0616A"/>
<path d="M190.532 53.1571C193.516 54.4816 194.23 59.3189 192.128 63.9608C191.313 65.8279 190.059 67.4744 188.47 68.763L185.463 76.711C183.491 86.1853 179.001 96.1606 172.818 95.3873C164.066 94.2928 161.309 83.7592 161.309 83.7592L173.086 79.1969L178.344 69.1589L180.137 65.0634C180.051 63.0319 180.458 61.0098 181.324 59.1662C183.427 54.522 187.549 51.8326 190.532 53.1571V53.1572V53.1571Z" fill="#A0616A"/>
<path d="M90.2736 205.603L82.1064 199.625L82.1714 199.497L127.674 109.721L127.76 109.706L164.399 103.545L172.031 120.377L191.988 148.163C193.363 150.077 194.081 152.33 194.066 154.679L193.743 204.173L181.363 204.523L181.346 204.366L177.028 164.35C176.713 161.433 175.185 158.735 172.836 156.948L148.478 138.416L90.2736 205.603H90.2736V205.603Z" fill="#2F2E41"/>
<path d="M83.3587 200.255C83.3587 200.255 79.2257 200.938 77.848 203.325C76.4703 205.712 72.3373 210.828 72.3373 210.828C72.3373 210.828 69.2375 216.626 76.4703 215.944C83.7031 215.262 86.4584 212.193 86.4584 212.193L89.5582 203.666L83.3587 200.255H83.3587Z" fill="#2F2E41"/>
<path d="M187.717 200.255C187.717 200.255 191.85 200.938 193.228 203.325C194.606 205.712 198.739 210.828 198.739 210.828C198.739 210.828 201.838 216.626 194.606 215.944C187.373 215.262 184.617 212.193 184.617 212.193L181.518 203.666L187.717 200.255Z" fill="#2F2E41"/>
<path d="M132.438 57.8626L156.892 53.0877L170.669 57.5215L166.88 108.34L127.789 109.874L132.438 57.8626Z" fill="#4AA2F3"/>
<path d="M168.215 56.3831L173.543 64.3509L174.778 83.9941L158.958 85.1833L159.385 59.7349L168.215 56.3831Z" fill="#4AA2F3"/>
<path d="M182.855 75.5014L176.454 72.9828L168.315 87.9103L175.748 91.5805L182.855 75.5014Z" fill="#A0616A"/>
<path d="M187.317 62.7976C186.873 62.7976 186.427 62.723 186.002 62.5725C184.976 62.2094 184.144 61.4327 183.718 60.4408L178.863 49.1452C177.034 44.8899 174.933 40.697 172.618 36.6828L171.604 34.9239C170.907 33.8614 154.385 8.68289 153.599 6.71646C153.007 5.23364 154.777 2.19307 154.853 2.06418L154.873 2.0362C154.913 1.99291 158.876 -2.28334 163.645 1.68782C168.328 5.58637 176.21 31.4234 176.543 32.5215L176.756 33.0534C178.7 37.9169 181.158 42.5994 184.062 46.9703L190.589 56.7924C191.196 57.706 191.385 58.8371 191.108 59.8956C190.831 60.9538 190.111 61.8511 189.133 62.3577C188.568 62.6498 187.944 62.7976 187.317 62.7976V62.7976V62.7976Z" fill="#3F3D56"/>
<path d="M143.771 66.3898L151.46 66.8173L166.234 51.384L172.006 44.5887C172.512 42.618 173.486 40.7959 174.849 39.2748C178.206 35.4214 182.934 34.0131 185.409 36.1282C187.885 38.2431 187.171 43.0803 183.814 46.9319C182.494 48.4899 180.816 49.7121 178.921 50.496L177.497 52.3551L161.193 75.0488C158.251 79.1434 153.049 80.9962 148.147 79.6954L138.168 77.047L143.771 66.3898V66.3898Z" fill="#A0616A"/>
<path d="M139.455 81.5977L127.59 74.0503C123.819 71.6516 122.37 66.9527 124.144 62.8773C125.222 60.4022 127.337 58.547 129.949 57.7876C132.557 57.0276 135.353 57.4548 137.611 58.9605L149.262 66.7259L139.455 81.5977V81.5977Z" fill="#4AA2F3"/>
<path d="M145.189 50.8551C151.903 50.8551 157.347 45.4649 157.347 38.8157C157.347 32.1665 151.903 26.7762 145.189 26.7762C138.474 26.7762 133.031 32.1665 133.031 38.8157C133.031 45.4649 138.474 50.8551 145.189 50.8551Z" fill="#A0616A"/>
<path d="M153.187 49.2079L152.137 47.4758C152.137 47.4758 156.734 44.4068 152.936 42.6255C149.137 40.8443 148.537 36.4892 148.537 36.4892C148.537 36.4892 137.441 33.3231 138.041 30.9474C138.64 28.5718 136.941 26.8893 139.739 25.8991C142.538 24.9089 155.033 25.8972 156.433 28.7675C157.832 31.6378 159.233 39.5563 158.533 40.6452C157.834 41.7341 153.187 49.2079 153.187 49.2079V49.2079Z" fill="#2F2E41"/>
<path d="M150.036 35.5981L138.74 28.1758C138.74 28.1758 124.146 23.7234 129.644 32.2352L134.293 33.175C134.293 33.175 146.938 36.0934 150.036 35.5981H150.036Z" fill="#4AA2F3"/>
<path d="M146.637 33.9158L158.433 42.7238C158.433 42.7238 165.329 30.5481 154.533 24.5115C143.737 18.4748 136.891 27.9286 136.891 27.9286L139.74 30.9472L146.637 33.9158V33.9158Z" fill="#4AA2F3"/>
<path d="M222.209 15.3785C222.209 19.055 225.219 22.0393 228.936 22.0393C230.754 22.0393 232.404 21.3232 233.613 20.1602C234.877 18.9493 235.659 17.2543 235.659 15.3785C235.659 11.7018 232.649 8.71747 228.936 8.71747C227.772 8.71747 226.68 9.0109 225.726 9.52249C225.564 9.61109 225.405 9.70668 225.25 9.80893C223.797 10.7503 222.74 12.2338 222.364 13.9699C222.316 14.1678 222.281 14.369 222.261 14.5736C222.226 14.8362 222.209 15.1057 222.209 15.3785H222.209Z" fill="#F3544A"/>
<path d="M210.817 12.6545L220.393 12.6545" stroke="#F3544A" stroke-width="1.2"/>
<path d="M210.817 18.4661L220.897 18.4661" stroke="#F3544A" stroke-width="1.2"/>
<path d="M203.953 15.5896L218.066 15.5603" stroke="#F3544A" stroke-width="1.2"/>
<path d="M142.42 16.2292C142.42 17.2067 143.312 18 144.418 18C145.52 18 146.416 17.2067 146.416 16.2292C146.416 15.2517 145.52 14.4583 144.418 14.4583C143.312 14.4583 142.42 15.251 142.42 16.2292ZM144.355 1C147.577 1 150 2.90754 150 6.66667H146.838C146.838 5.03467 146.113 3.69946 144.42 3.69946C143.423 3.69946 142.365 4.28596 142.274 5.40725C142.176 6.58733 142.887 7.18587 143.787 7.9445C146.125 9.91367 146.038 10.8125 146.038 13.0417H142.886C142.886 12.0132 143.011 11.2652 141.416 9.74154C140.352 8.72437 139.028 7.45929 139 5.53192C138.963 2.72479 141.2 1 144.355 1Z" fill="#2F2E41"/>
</g>
<defs>
<clipPath id="clip0_5_2">
<rect width="252" height="216" fill="white"/>
</clipPath>
</defs>
</svg>
