<svg width="263" height="189" viewBox="0 0 263 189" fill="none" xmlns="http://www.w3.org/2000/svg">
<path d="M246.565 88.4708C251.866 90.3737 251.861 97.8715 246.558 99.7677L16.7453 181.94C11.3368 183.874 6.56384 177.834 9.69534 173.019L58.8785 97.3914C60.169 95.407 60.1722 92.8493 58.8866 90.8617L9.75702 14.9021C6.63957 10.0822 11.4197 4.05694 16.8223 5.99641L246.565 88.4708Z" fill="#0090D9"/>
<path d="M126.286 92.6971L59.8257 108.404L59.2853 79.4837L126.286 92.6971Z" fill="white"/>
<path d="M59.4545 79.5622L59.4545 91.9998L50 77.5L59.4545 79.5622Z" fill="white"/>
<path d="M59.5 96.4999L61.5 108L50 111L59.5 96.4999Z" fill="white"/>
</svg>
